<?xml version="1.0" encoding="UTF-8"?>
<svg id="Layer_1" data-name="Layer 1" xmlns="http://www.w3.org/2000/svg" xmlns:xlink="http://www.w3.org/1999/xlink" viewBox="0 0 299 40.06">
  <defs>
    <style>
      .cls-1 {
        fill: url(#linear-gradient);
      }

      .cls-2 {
        fill: #02041f;
      }

      .cls-3 {
        fill: #fff;
      }
    </style>
    <linearGradient id="linear-gradient" x1="6.67" y1="-7.67" x2="55.27" y2="40.93" gradientUnits="userSpaceOnUse">
      <stop offset=".14" stop-color="#4a59ca"/>
      <stop offset=".95" stop-color="#02041f"/>
    </linearGradient>
  </defs>
  <g>
    <path class="cls-2" d="M94.93,40.06c-2.71,0-5.15-.61-7.32-1.84-2.17-1.23-3.89-2.95-5.16-5.15-1.26-2.21-1.9-4.81-1.9-7.8s.63-5.64,1.9-7.85c1.26-2.21,2.98-3.92,5.16-5.13,2.17-1.21,4.61-1.82,7.32-1.82,2.42,0,4.54.53,6.36,1.6,1.82,1.07,3.22,2.69,4.22,4.86s1.5,4.95,1.5,8.33-.48,6.12-1.44,8.3c-.96,2.19-2.34,3.82-4.14,4.89-1.8,1.07-3.96,1.6-6.49,1.6ZM96.37,33.22c1.35,0,2.58-.32,3.68-.96,1.1-.64,1.98-1.56,2.64-2.75.66-1.19.99-2.61.99-4.25s-.33-3.1-.99-4.27c-.66-1.17-1.54-2.08-2.64-2.72-1.1-.64-2.33-.96-3.68-.96s-2.64.32-3.74.96c-1.1.64-1.98,1.55-2.64,2.72-.66,1.18-.99,2.6-.99,4.27s.33,3.05.99,4.25c.66,1.19,1.54,2.11,2.64,2.75,1.1.64,2.35.96,3.74.96ZM103.9,39.63v-5.88l.16-8.55-.53-8.49V0h8.33v39.63h-7.96Z"/>
    <path class="cls-2" d="M132.14,40.06c-3.06,0-5.78-.64-8.14-1.92-2.37-1.28-4.24-3.03-5.61-5.26-1.37-2.23-2.06-4.76-2.06-7.61s.69-5.44,2.06-7.66c1.37-2.22,3.24-3.97,5.61-5.23,2.37-1.26,5.08-1.9,8.14-1.9s5.73.63,8.12,1.9c2.38,1.26,4.25,3,5.61,5.21,1.35,2.21,2.03,4.77,2.03,7.69s-.68,5.39-2.03,7.61c-1.35,2.23-3.22,3.98-5.61,5.26-2.39,1.28-5.09,1.92-8.12,1.92ZM132.14,33.22c1.39,0,2.63-.32,3.74-.96,1.1-.64,1.98-1.56,2.62-2.75.64-1.19.96-2.61.96-4.25s-.32-3.1-.96-4.27c-.64-1.17-1.51-2.08-2.62-2.72-1.1-.64-2.35-.96-3.74-.96s-2.63.32-3.74.96c-1.1.64-1.99,1.55-2.64,2.72-.66,1.18-.99,2.6-.99,4.27s.33,3.05.99,4.25c.66,1.19,1.54,2.11,2.64,2.75,1.1.64,2.35.96,3.74.96Z"/>
    <path class="cls-2" d="M152.36,39.63V10.9h7.96v8.12l-1.12-2.35c.85-2.03,2.22-3.57,4.11-4.62,1.89-1.05,4.18-1.58,6.89-1.58v7.69c-.36-.04-.68-.06-.96-.08-.29-.02-.59-.03-.91-.03-2.28,0-4.12.65-5.53,1.95-1.41,1.3-2.11,3.32-2.11,6.06v13.57h-8.33Z"/>
    <path class="cls-2" d="M187.48,40.06c-3.06,0-5.78-.64-8.14-1.92-2.37-1.28-4.24-3.03-5.61-5.26-1.37-2.23-2.06-4.76-2.06-7.61s.69-5.44,2.06-7.66c1.37-2.22,3.24-3.97,5.61-5.23,2.37-1.26,5.08-1.9,8.14-1.9s5.73.63,8.12,1.9c2.38,1.26,4.25,3,5.61,5.21,1.35,2.21,2.03,4.77,2.03,7.69s-.68,5.39-2.03,7.61c-1.35,2.23-3.22,3.98-5.61,5.26-2.39,1.28-5.09,1.92-8.12,1.92ZM187.48,33.22c1.39,0,2.63-.32,3.74-.96,1.1-.64,1.98-1.56,2.62-2.75.64-1.19.96-2.61.96-4.25s-.32-3.1-.96-4.27c-.64-1.17-1.51-2.08-2.62-2.72-1.1-.64-2.35-.96-3.74-.96s-2.63.32-3.74.96c-1.1.64-1.99,1.55-2.64,2.72-.66,1.18-.99,2.6-.99,4.27s.33,3.05.99,4.25c.66,1.19,1.54,2.11,2.64,2.75,1.1.64,2.35.96,3.74.96Z"/>
    <path class="cls-2" d="M218.46,40.06c-2.46,0-4.82-.29-7.08-.88-2.26-.59-4.05-1.33-5.37-2.22l2.78-5.98c1.32.82,2.88,1.49,4.67,2,1.8.52,3.57.77,5.31.77,1.92,0,3.28-.23,4.09-.69.8-.46,1.2-1.1,1.2-1.92,0-.68-.31-1.18-.94-1.52-.62-.34-1.45-.6-2.48-.77-1.03-.18-2.16-.36-3.39-.53-1.23-.18-2.47-.42-3.71-.72-1.25-.3-2.39-.76-3.42-1.36s-1.86-1.42-2.48-2.46c-.62-1.03-.94-2.37-.94-4.01,0-1.82.52-3.42,1.58-4.81,1.05-1.39,2.57-2.48,4.57-3.28,1.99-.8,4.38-1.2,7.16-1.2,1.96,0,3.95.21,5.98.64,2.03.43,3.72,1.05,5.07,1.87l-2.78,5.93c-1.39-.82-2.79-1.38-4.19-1.68-1.41-.3-2.77-.45-4.09-.45-1.85,0-3.21.25-4.06.75s-1.28,1.14-1.28,1.92c0,.71.31,1.25.94,1.6.62.36,1.45.64,2.48.85s2.16.4,3.39.56c1.23.16,2.47.4,3.71.72,1.25.32,2.38.77,3.39,1.36s1.84,1.39,2.48,2.4c.64,1.01.96,2.34.96,3.98,0,1.78-.54,3.36-1.6,4.73-1.07,1.37-2.61,2.45-4.62,3.23s-4.46,1.18-7.34,1.18Z"/>
    <path class="cls-2" d="M251.41,40.06c-3.28,0-6.15-.64-8.63-1.92-2.48-1.28-4.39-3.03-5.74-5.26-1.35-2.23-2.03-4.76-2.03-7.61s.67-5.44,2-7.66c1.34-2.22,3.16-3.97,5.48-5.23,2.31-1.26,4.93-1.9,7.85-1.9s5.35.6,7.61,1.79c2.26,1.19,4.05,2.9,5.37,5.13,1.32,2.23,1.98,4.89,1.98,7.98,0,.32-.02.69-.05,1.1-.04.41-.07.79-.11,1.15h-23.34v-4.86h18.96l-3.2,1.44c0-1.5-.3-2.79-.91-3.9-.61-1.1-1.44-1.97-2.51-2.59s-2.31-.94-3.74-.94-2.68.31-3.77.94-1.93,1.49-2.54,2.62c-.61,1.12-.91,2.45-.91,3.98v1.28c0,1.57.35,2.95,1.04,4.14.69,1.19,1.67,2.1,2.94,2.72,1.26.62,2.75.94,4.46.94,1.53,0,2.88-.23,4.03-.69,1.16-.46,2.22-1.16,3.18-2.08l4.43,4.81c-1.32,1.49-2.97,2.64-4.97,3.44s-4.29,1.2-6.89,1.2Z"/>
    <path class="cls-2" d="M285.11,40.06c-3.28,0-6.15-.64-8.63-1.92-2.48-1.28-4.39-3.03-5.74-5.26-1.35-2.23-2.03-4.76-2.03-7.61s.67-5.44,2-7.66c1.34-2.22,3.16-3.97,5.48-5.23,2.31-1.26,4.93-1.9,7.85-1.9s5.35.6,7.61,1.79c2.26,1.19,4.05,2.9,5.37,5.13,1.32,2.23,1.98,4.89,1.98,7.98,0,.32-.02.69-.05,1.1-.04.41-.07.79-.11,1.15h-23.34v-4.86h18.96l-3.2,1.44c0-1.5-.3-2.79-.91-3.9-.61-1.1-1.44-1.97-2.51-2.59s-2.31-.94-3.74-.94-2.68.31-3.77.94-1.93,1.49-2.54,2.62c-.61,1.12-.91,2.45-.91,3.98v1.28c0,1.57.35,2.95,1.04,4.14.69,1.19,1.67,2.1,2.94,2.72,1.26.62,2.75.94,4.46.94,1.53,0,2.88-.23,4.03-.69,1.16-.46,2.22-1.16,3.18-2.08l4.43,4.81c-1.32,1.49-2.97,2.64-4.97,3.44s-4.29,1.2-6.89,1.2Z"/>
  </g>
  <g>
    <rect class="cls-1" y="0" width="68.73" height="40.06" rx="20.03" ry="20.03"/>
    <rect class="cls-3" x="43.57" y="10.15" width="10.12" height="19.76" rx="2.71" ry="2.71"/>
    <rect class="cls-3" x="15.78" y="10.15" width="10.12" height="19.76" rx="2.71" ry="2.71"/>
  </g>
</svg>