<?xml version="1.0" encoding="UTF-8"?>
<svg id="Layer_1" xmlns="http://www.w3.org/2000/svg" xmlns:xlink="http://www.w3.org/1999/xlink" version="1.1" viewBox="0 0 220.4 40.1">
  <!-- Generator: Adobe Illustrator 29.3.1, SVG Export Plug-In . SVG Version: 2.1.0 Build 151)  -->
  <defs>
    <style>
      .st0 {
        fill: #02041f;
      }
    </style>
  </defs>
  <path class="st0" d="M15.4,40.1c-2.7,0-5.2-.6-7.3-1.8s-3.9-3-5.2-5.2c-1.3-2.2-1.9-4.8-1.9-7.8s.6-5.6,1.9-7.9c1.3-2.2,3-3.9,5.2-5.1,2.2-1.2,4.6-1.8,7.3-1.8s4.5.5,6.4,1.6c1.8,1.1,3.2,2.7,4.2,4.9s1.5,5,1.5,8.3-.5,6.1-1.4,8.3c-1,2.2-2.3,3.8-4.1,4.9s-4,1.6-6.5,1.6h0ZM16.8,33.2c1.3,0,2.6-.3,3.7-1s2-1.6,2.6-2.8c.7-1.2,1-2.6,1-4.2s-.3-3.1-1-4.3c-.7-1.2-1.5-2.1-2.6-2.7s-2.3-1-3.7-1-2.6.3-3.7,1-2,1.5-2.6,2.7c-.7,1.2-1,2.6-1,4.3s.3,3,1,4.2c.7,1.2,1.5,2.1,2.6,2.8s2.3,1,3.7,1ZM24.3,39.6v-5.9l.2-8.5-.5-8.5V0h8.3v39.6h-8Z"/>
  <path class="st0" d="M52.6,40.1c-3.1,0-5.8-.6-8.1-1.9-2.4-1.3-4.2-3-5.6-5.3s-2.1-4.8-2.1-7.6.7-5.4,2.1-7.7c1.4-2.2,3.2-4,5.6-5.2,2.4-1.3,5.1-1.9,8.1-1.9s5.7.6,8.1,1.9c2.4,1.3,4.2,3,5.6,5.2,1.4,2.2,2,4.8,2,7.7s-.7,5.4-2,7.6c-1.4,2.2-3.2,4-5.6,5.3s-5.1,1.9-8.1,1.9h0ZM52.6,33.2c1.4,0,2.6-.3,3.7-1,1.1-.6,2-1.6,2.6-2.8s1-2.6,1-4.2-.3-3.1-1-4.3-1.5-2.1-2.6-2.7c-1.1-.6-2.4-1-3.7-1s-2.6.3-3.7,1c-1.1.6-2,1.5-2.6,2.7-.7,1.2-1,2.6-1,4.3s.3,3,1,4.2c.7,1.2,1.5,2.1,2.6,2.8,1.1.6,2.4,1,3.7,1Z"/>
  <path class="st0" d="M72.8,39.6V10.9h8v8.1l-1.1-2.4c.9-2,2.2-3.6,4.1-4.6s4.2-1.6,6.9-1.6v7.7c-.4,0-.7,0-1,0-.3,0-.6,0-.9,0-2.3,0-4.1.6-5.5,2-1.4,1.3-2.1,3.3-2.1,6.1v13.6s-8.3,0-8.3,0Z"/>
  <path class="st0" d="M107.9,40.1c-3.1,0-5.8-.6-8.1-1.9-2.4-1.3-4.2-3-5.6-5.3s-2.1-4.8-2.1-7.6.7-5.4,2.1-7.7c1.4-2.2,3.2-4,5.6-5.2,2.4-1.3,5.1-1.9,8.1-1.9s5.7.6,8.1,1.9c2.4,1.3,4.2,3,5.6,5.2,1.4,2.2,2,4.8,2,7.7s-.7,5.4-2,7.6c-1.4,2.2-3.2,4-5.6,5.3s-5.1,1.9-8.1,1.9h0ZM107.9,33.2c1.4,0,2.6-.3,3.7-1,1.1-.6,2-1.6,2.6-2.8s1-2.6,1-4.2-.3-3.1-1-4.3-1.5-2.1-2.6-2.7c-1.1-.6-2.4-1-3.7-1s-2.6.3-3.7,1c-1.1.6-2,1.5-2.6,2.7-.7,1.2-1,2.6-1,4.3s.3,3,1,4.2c.7,1.2,1.5,2.1,2.6,2.8s2.4,1,3.7,1Z"/>
  <path class="st0" d="M138.9,40.1c-2.5,0-4.8-.3-7.1-.9s-4.1-1.3-5.4-2.2l2.8-6c1.3.8,2.9,1.5,4.7,2,1.8.5,3.6.8,5.3.8s3.3-.2,4.1-.7c.8-.5,1.2-1.1,1.2-1.9s-.3-1.2-.9-1.5c-.6-.3-1.4-.6-2.5-.8-1-.2-2.2-.4-3.4-.5-1.2-.2-2.5-.4-3.7-.7-1.2-.3-2.4-.8-3.4-1.4s-1.9-1.4-2.5-2.5c-.6-1-.9-2.4-.9-4s.5-3.4,1.6-4.8c1.1-1.4,2.6-2.5,4.6-3.3,2-.8,4.4-1.2,7.2-1.2s3.9.2,6,.6,3.7,1.1,5.1,1.9l-2.8,5.9c-1.4-.8-2.8-1.4-4.2-1.7-1.4-.3-2.8-.5-4.1-.5s-3.2.2-4.1.8-1.3,1.1-1.3,1.9.3,1.2.9,1.6c.6.4,1.4.6,2.5.9s2.2.4,3.4.6,2.5.4,3.7.7c1.2.3,2.4.8,3.4,1.4s1.8,1.4,2.5,2.4,1,2.3,1,4-.5,3.4-1.6,4.7c-1.1,1.4-2.6,2.5-4.6,3.2s-4.5,1.2-7.3,1.2h0Z"/>
  <path class="st0" d="M171.9,40.1c-3.3,0-6.1-.6-8.6-1.9-2.5-1.3-4.4-3-5.7-5.3s-2-4.8-2-7.6.7-5.4,2-7.7c1.3-2.2,3.2-4,5.5-5.2,2.3-1.3,4.9-1.9,7.9-1.9s5.4.6,7.6,1.8c2.3,1.2,4,2.9,5.4,5.1s2,4.9,2,8,0,.7,0,1.1c0,.4,0,.8-.1,1.1h-23.3v-4.9h19l-3.2,1.4c0-1.5-.3-2.8-.9-3.9-.6-1.1-1.4-2-2.5-2.6s-2.3-.9-3.7-.9-2.7.3-3.8.9-1.9,1.5-2.5,2.6c-.6,1.1-.9,2.5-.9,4v1.3c0,1.6.4,3,1,4.1.7,1.2,1.7,2.1,2.9,2.7,1.3.6,2.8.9,4.5.9s2.9-.2,4-.7c1.2-.5,2.2-1.2,3.2-2.1l4.4,4.8c-1.3,1.5-3,2.6-5,3.4s-4.3,1.2-6.9,1.2h0Z"/>
  <path class="st0" d="M205.6,40.1c-3.3,0-6.1-.6-8.6-1.9s-4.4-3-5.7-5.3c-1.4-2.2-2-4.8-2-7.6s.7-5.4,2-7.7c1.3-2.2,3.2-4,5.5-5.2,2.3-1.3,4.9-1.9,7.9-1.9s5.4.6,7.6,1.8c2.3,1.2,4,2.9,5.4,5.1s2,4.9,2,8,0,.7,0,1.1c0,.4,0,.8-.1,1.1h-23.3v-4.9h19l-3.2,1.4c0-1.5-.3-2.8-.9-3.9-.6-1.1-1.4-2-2.5-2.6s-2.3-.9-3.7-.9-2.7.3-3.8.9-1.9,1.5-2.5,2.6c-.6,1.1-.9,2.5-.9,4v1.3c0,1.6.4,3,1,4.1.7,1.2,1.7,2.1,2.9,2.7,1.3.6,2.8.9,4.5.9s2.9-.2,4-.7c1.2-.5,2.2-1.2,3.2-2.1l4.4,4.8c-1.3,1.5-3,2.6-5,3.4s-4.3,1.2-6.9,1.2h0Z"/>
</svg>